<svg width="90" height="94" viewBox="0 0 90 94" fill="none" xmlns="http://www.w3.org/2000/svg">
<path d="M37.9721 1.87555L16.8777 22.97C15.9813 23.8658 15.3707 25.0074 15.1233 26.2503C14.8759 27.4932 15.0026 28.7816 15.4876 29.9524L15.7054 30.4168C16.2425 31.4667 17.0591 32.3478 18.065 32.9633C19.071 33.5787 20.2273 33.9045 21.4066 33.9048H29.6894V56.3253C29.6894 58.0242 30.3643 59.6536 31.5656 60.8549C32.7669 62.0562 34.3963 62.7311 36.0952 62.7311H48.9069L49.3873 62.7151C50.9989 62.5939 52.5051 61.868 53.604 60.683C54.7029 59.498 55.3133 57.9414 55.3128 56.3253L55.3096 33.9048H63.5955C64.8623 33.9045 66.1005 33.5287 67.1537 32.8248C68.2069 32.1209 69.0277 31.1205 69.5125 29.9502C69.9972 28.7798 70.124 27.492 69.877 26.2496C69.6299 25.0072 69.0201 23.8659 68.1245 22.97L47.03 1.87555C45.8287 0.674635 44.1997 0 42.5011 0C40.8025 0 39.1734 0.674635 37.9721 1.87555Z" fill="#0076FF"/>
<path d="M69.6186 55.1935L56.1949 68.6173C55.6244 69.1874 55.2359 69.9138 55.0785 70.7047C54.921 71.4957 55.0017 72.3155 55.3103 73.0606L55.4489 73.3562C55.7907 74.0242 56.3103 74.585 56.9505 74.9766C57.5906 75.3683 58.3265 75.5756 59.0769 75.5758H64.3478V89.8433C64.3478 90.9245 64.7773 91.9614 65.5417 92.7258C66.3062 93.4903 67.3431 93.9198 68.4242 93.9198H76.5771L76.8829 93.9096C77.9084 93.8325 78.8669 93.3706 79.5662 92.6165C80.2655 91.8624 80.6539 90.8718 80.6536 89.8433L80.6515 75.5758H85.9244C86.7305 75.5756 87.5185 75.3364 88.1887 74.8885C88.8589 74.4406 89.3813 73.804 89.6897 73.0592C89.9982 72.3144 90.0789 71.4949 89.9217 70.7043C89.7645 69.9137 89.3764 69.1874 88.8065 68.6173L75.3827 55.1935C74.6183 54.4293 73.5816 54 72.5007 54C71.4197 54 70.3831 54.4293 69.6186 55.1935Z" fill="#FF5C00"/>
<path d="M10.4419 48.8525L0.85348 58.4409C0.446031 58.8481 0.168515 59.367 0.0560428 59.932C-0.0564293 60.4969 0.00119672 61.0825 0.22163 61.6147L0.32063 61.8258C0.564795 62.303 0.935949 62.7036 1.3932 62.9833C1.85045 63.263 2.37605 63.4111 2.91209 63.4113H6.67698V73.6024C6.67698 74.3746 6.98375 75.1153 7.52981 75.6613C8.07587 76.2074 8.81649 76.5141 9.58873 76.5141H15.4122L15.6306 76.5069C16.3631 76.4518 17.0478 76.1218 17.5473 75.5832C18.0468 75.0445 18.3242 74.337 18.324 73.6024L18.3225 63.4113H22.0889C22.6647 63.4111 23.2275 63.2403 23.7062 62.9204C24.1849 62.6004 24.5581 62.1457 24.7784 61.6137C24.9987 61.0817 25.0564 60.4964 24.9441 59.9316C24.8318 59.3669 24.5546 58.8481 24.1475 58.4409L14.5591 48.8525C14.0131 48.3067 13.2726 48 12.5005 48C11.7284 48 10.9879 48.3067 10.4419 48.8525Z" fill="white"/>
</svg>
