<svg width="302" height="190" viewBox="0 0 302 190" fill="none" xmlns="http://www.w3.org/2000/svg">
<path d="M6.83694 2.63242C6.63395 0.988049 5.13636 -0.18042 3.49199 0.0225728C1.84762 0.225566 0.679148 1.72315 0.88214 3.36752L6.83694 2.63242ZM60.8595 76.5L61.5279 73.5754L61.5279 73.5754L60.8595 76.5ZM207.612 65.4998L208.135 62.5458L208.135 62.5458L207.612 65.4998ZM260.112 98.9998L257.609 100.654L257.609 100.654L260.112 98.9998ZM277.221 188.604C278.383 189.785 280.283 189.8 281.464 188.638L300.708 169.7C301.889 168.538 301.905 166.639 300.742 165.458C299.58 164.277 297.681 164.262 296.5 165.424L279.394 182.258L262.56 165.151C261.398 163.97 259.498 163.955 258.317 165.117C257.136 166.279 257.121 168.179 258.283 169.36L277.221 188.604ZM3.85954 2.99997C0.88214 3.36752 0.882167 3.36774 0.882195 3.36796C0.882205 3.36805 0.882234 3.36828 0.882255 3.36845C0.882298 3.3688 0.882344 3.36917 0.882395 3.36958C0.882497 3.3704 0.882616 3.37136 0.882751 3.37245C0.883023 3.37463 0.883362 3.37734 0.88377 3.38059C0.884586 3.38708 0.885678 3.3957 0.887052 3.40643C0.889799 3.4279 0.893676 3.45779 0.898736 3.49593C0.908858 3.57222 0.923719 3.68151 0.943763 3.82234C0.983848 4.10397 1.04468 4.51187 1.12981 5.03425C1.30005 6.07882 1.56765 7.58238 1.96117 9.45061L7.83234 8.21393C7.45946 6.4437 7.20846 5.03112 7.05169 4.06915C6.97332 3.58827 6.91854 3.2203 6.8839 2.97689C6.86658 2.85519 6.85429 2.76466 6.84661 2.70676C6.84277 2.67781 6.84008 2.65701 6.83848 2.64456C6.83769 2.63834 6.83717 2.6342 6.83691 2.63217C6.83678 2.63115 6.83672 2.63066 6.83673 2.6307C6.83673 2.63072 6.83675 2.63088 6.83678 2.63116C6.8368 2.63131 6.83682 2.63148 6.83685 2.63169C6.83686 2.6318 6.83688 2.63198 6.83689 2.63203C6.83691 2.63222 6.83694 2.63242 3.85954 2.99997ZM3.88738 17.291C4.85472 20.7463 6.10757 24.6636 7.71521 28.8168L13.3106 26.6508C11.7818 22.7013 10.588 18.9695 9.66522 15.6734L3.88738 17.291ZM10.9056 36.283C12.5702 39.8246 14.4999 43.4421 16.7335 47.0112L21.8197 43.8283C19.7279 40.4858 17.9109 37.082 16.3357 33.7307L10.9056 36.283ZM21.3797 53.738C23.8205 56.9386 26.5465 60.0346 29.5891 62.9235L33.7205 58.5725C30.932 55.9248 28.4172 53.0717 26.1507 50.0996L21.3797 53.738ZM35.9029 68.2452C39.1436 70.6562 42.676 72.8261 46.5233 74.6714L49.118 69.2614C45.6352 67.591 42.4317 65.6241 39.4844 63.4313L35.9029 68.2452ZM54.1989 77.7591C56.1301 78.3953 58.1269 78.9529 60.1912 79.4246L61.5279 73.5754C59.6456 73.1453 57.8292 72.6379 56.0762 72.0604L54.1989 77.7591ZM60.1912 79.4246C62.3055 79.9077 64.469 80.2976 66.6748 80.6041L67.5006 74.6612C65.4516 74.3765 63.4593 74.0168 61.5279 73.5754L60.1912 79.4246ZM75.3669 81.3931C79.5779 81.5916 83.9152 81.5541 88.34 81.3355L88.044 75.3428C83.7754 75.5537 79.6343 75.5876 75.6494 75.3998L75.3669 81.3931ZM96.9137 80.7096C101.104 80.3134 105.359 79.7906 109.649 79.1825L108.807 73.2419C104.587 73.84 100.427 74.3506 96.3488 74.7363L96.9137 80.7096ZM118.069 77.8968C122.241 77.2194 126.436 76.4862 130.625 75.7336L129.564 69.8282C125.392 70.5777 121.233 71.3045 117.107 71.9743L118.069 77.8968ZM138.956 74.219C143.141 73.4538 147.3 72.6933 151.422 71.9711L150.386 66.0611C146.239 66.7879 142.058 67.5523 137.877 68.3168L138.956 74.219ZM159.719 70.5701C163.947 69.8884 168.107 69.2758 172.175 68.7711L171.436 62.8167C167.278 63.3327 163.043 63.9567 158.764 64.6466L159.719 70.5701ZM180.474 67.8917C184.765 67.5238 188.912 67.3182 192.884 67.3229L192.891 61.3229C188.711 61.318 184.387 61.5342 179.961 61.9136L180.474 67.8917ZM201.073 67.6684C203.147 67.8517 205.154 68.1111 207.089 68.4538L208.135 62.5458C206.011 62.1697 203.831 61.8888 201.601 61.6917L201.073 67.6684ZM207.089 68.4538C209.107 68.8113 211.132 69.2385 213.156 69.742L214.604 63.9195C212.442 63.3816 210.283 62.9262 208.135 62.5458L207.089 68.4538ZM221.056 72.1192C224.872 73.4777 228.639 75.1429 232.301 77.1597L235.196 71.9041C231.233 69.7214 227.168 67.9263 223.069 66.4668L221.056 72.1192ZM239.246 81.5181C242.496 83.8291 245.627 86.4709 248.592 89.4821L252.867 85.2723C249.65 82.0054 246.251 79.1371 242.723 76.6283L239.246 81.5181ZM254.005 95.6461C255.247 97.2316 256.45 98.8995 257.609 100.654L262.615 97.346C261.368 95.4583 260.071 93.6594 258.728 91.946L254.005 95.6461ZM257.609 100.654C258.541 102.064 259.43 103.548 260.278 105.094L265.539 102.211C264.619 100.532 263.646 98.9059 262.615 97.346L257.609 100.654ZM263.351 111.368C264.734 114.523 265.974 117.842 267.086 121.264L272.792 119.41C271.629 115.828 270.32 112.32 268.845 108.959L263.351 111.368ZM269.1 128.071C270.027 131.514 270.837 135.004 271.544 138.479L277.424 137.283C276.695 133.701 275.857 130.089 274.894 126.511L269.1 128.071ZM272.847 145.51C273.458 149.152 273.963 152.722 274.381 156.145L280.337 155.418C279.91 151.917 279.392 148.257 278.764 144.516L272.847 145.51ZM275.154 163.272C275.529 167.224 275.788 170.853 275.967 174.012L281.957 173.673C281.775 170.448 281.51 166.741 281.127 162.704L275.154 163.272ZM276.276 181.157C276.326 182.854 276.347 184.192 276.355 185.101C276.359 185.556 276.36 185.904 276.361 186.136C276.361 186.252 276.36 186.339 276.36 186.396C276.36 186.424 276.36 186.445 276.36 186.459C276.36 186.466 276.36 186.47 276.36 186.473C276.36 186.475 276.36 186.476 276.36 186.476C276.36 186.476 276.36 186.476 276.36 186.476C276.36 186.476 276.36 186.476 276.36 186.476C276.36 186.476 276.36 186.476 276.36 186.476C276.36 186.476 276.36 186.476 279.36 186.5C282.36 186.524 282.36 186.524 282.36 186.524C282.36 186.524 282.36 186.524 282.36 186.524C282.36 186.523 282.36 186.523 282.36 186.523C282.36 186.523 282.36 186.522 282.36 186.521C282.36 186.52 282.36 186.518 282.36 186.515C282.36 186.51 282.36 186.504 282.36 186.495C282.36 186.477 282.36 186.452 282.36 186.419C282.36 186.354 282.361 186.259 282.361 186.134C282.36 185.885 282.359 185.519 282.355 185.046C282.346 184.099 282.325 182.722 282.274 180.981L276.276 181.157ZM6.83694 2.63242C6.63395 0.988049 5.13636 -0.18042 3.49199 0.0225728C1.84762 0.225566 0.679148 1.72315 0.88214 3.36752L6.83694 2.63242ZM60.8595 76.5L61.5279 73.5754L61.5279 73.5754L60.8595 76.5ZM207.612 65.4998L208.135 62.5458L208.135 62.5458L207.612 65.4998ZM260.112 98.9998L257.609 100.654L257.609 100.654L260.112 98.9998ZM277.221 188.604C278.383 189.785 280.283 189.8 281.464 188.638L300.708 169.7C301.889 168.538 301.905 166.639 300.742 165.458C299.58 164.277 297.681 164.262 296.5 165.424L279.394 182.258L262.56 165.151C261.398 163.97 259.498 163.955 258.317 165.117C257.136 166.279 257.121 168.179 258.283 169.36L277.221 188.604ZM3.85954 2.99997C0.88214 3.36752 0.882167 3.36774 0.882195 3.36796C0.882205 3.36805 0.882234 3.36828 0.882255 3.36845C0.882298 3.3688 0.882344 3.36917 0.882395 3.36958C0.882497 3.3704 0.882616 3.37136 0.882751 3.37245C0.883023 3.37463 0.883362 3.37734 0.88377 3.38059C0.884586 3.38708 0.885678 3.3957 0.887052 3.40643C0.889799 3.4279 0.893676 3.45779 0.898736 3.49593C0.908858 3.57222 0.923719 3.68151 0.943763 3.82234C0.983848 4.10397 1.04468 4.51187 1.12981 5.03425C1.30005 6.07882 1.56765 7.58238 1.96117 9.45061L7.83234 8.21393C7.45946 6.4437 7.20846 5.03112 7.05169 4.06915C6.97332 3.58827 6.91854 3.2203 6.8839 2.97689C6.86658 2.85519 6.85429 2.76466 6.84661 2.70676C6.84277 2.67781 6.84008 2.65701 6.83848 2.64456C6.83769 2.63834 6.83717 2.6342 6.83691 2.63217C6.83678 2.63115 6.83672 2.63066 6.83673 2.6307C6.83673 2.63072 6.83675 2.63088 6.83678 2.63116C6.8368 2.63131 6.83682 2.63148 6.83685 2.63169C6.83686 2.6318 6.83688 2.63198 6.83689 2.63203C6.83691 2.63222 6.83694 2.63242 3.85954 2.99997ZM3.88738 17.291C4.85472 20.7463 6.10757 24.6636 7.71521 28.8168L13.3106 26.6508C11.7818 22.7013 10.588 18.9695 9.66522 15.6734L3.88738 17.291ZM10.9056 36.283C12.5702 39.8246 14.4999 43.4421 16.7335 47.0112L21.8197 43.8283C19.7279 40.4858 17.9109 37.082 16.3357 33.7307L10.9056 36.283ZM21.3797 53.738C23.8205 56.9386 26.5465 60.0346 29.5891 62.9235L33.7205 58.5725C30.932 55.9248 28.4172 53.0717 26.1507 50.0996L21.3797 53.738ZM35.9029 68.2452C39.1436 70.6562 42.676 72.8261 46.5233 74.6714L49.118 69.2614C45.6352 67.591 42.4317 65.6241 39.4844 63.4313L35.9029 68.2452ZM54.1989 77.7591C56.1301 78.3953 58.1269 78.9529 60.1912 79.4246L61.5279 73.5754C59.6456 73.1453 57.8292 72.6379 56.0762 72.0604L54.1989 77.7591ZM60.1912 79.4246C62.3055 79.9077 64.469 80.2976 66.6748 80.6041L67.5006 74.6612C65.4516 74.3765 63.4593 74.0168 61.5279 73.5754L60.1912 79.4246ZM75.3669 81.3931C79.5779 81.5916 83.9152 81.5541 88.34 81.3355L88.044 75.3428C83.7754 75.5537 79.6343 75.5876 75.6494 75.3998L75.3669 81.3931ZM96.9137 80.7096C101.104 80.3134 105.359 79.7906 109.649 79.1825L108.807 73.2419C104.587 73.84 100.427 74.3506 96.3488 74.7363L96.9137 80.7096ZM118.069 77.8968C122.241 77.2194 126.436 76.4862 130.625 75.7336L129.564 69.8282C125.392 70.5777 121.233 71.3045 117.107 71.9743L118.069 77.8968ZM138.956 74.219C143.141 73.4538 147.3 72.6933 151.422 71.9711L150.386 66.0611C146.239 66.7879 142.058 67.5523 137.877 68.3168L138.956 74.219ZM159.719 70.5701C163.947 69.8884 168.107 69.2758 172.175 68.7711L171.436 62.8167C167.278 63.3327 163.043 63.9567 158.764 64.6466L159.719 70.5701ZM180.474 67.8917C184.765 67.5238 188.912 67.3182 192.884 67.3229L192.891 61.3229C188.711 61.318 184.387 61.5342 179.961 61.9136L180.474 67.8917ZM201.073 67.6684C203.147 67.8517 205.154 68.1111 207.089 68.4538L208.135 62.5458C206.011 62.1697 203.831 61.8888 201.601 61.6917L201.073 67.6684ZM207.089 68.4538C209.107 68.8113 211.132 69.2385 213.156 69.742L214.604 63.9195C212.442 63.3816 210.283 62.9262 208.135 62.5458L207.089 68.4538ZM221.056 72.1192C224.872 73.4777 228.639 75.1429 232.301 77.1597L235.196 71.9041C231.233 69.7214 227.168 67.9263 223.069 66.4668L221.056 72.1192ZM239.246 81.5181C242.496 83.8291 245.627 86.4709 248.592 89.4821L252.867 85.2723C249.65 82.0054 246.251 79.1371 242.723 76.6283L239.246 81.5181ZM254.005 95.6461C255.247 97.2316 256.45 98.8995 257.609 100.654L262.615 97.346C261.368 95.4583 260.071 93.6594 258.728 91.946L254.005 95.6461ZM257.609 100.654C258.541 102.064 259.43 103.548 260.278 105.094L265.539 102.211C264.619 100.532 263.646 98.9059 262.615 97.346L257.609 100.654ZM263.351 111.368C264.734 114.523 265.974 117.842 267.086 121.264L272.792 119.41C271.629 115.828 270.32 112.32 268.845 108.959L263.351 111.368ZM269.1 128.071C270.027 131.514 270.837 135.004 271.544 138.479L277.424 137.283C276.695 133.701 275.857 130.089 274.894 126.511L269.1 128.071ZM272.847 145.51C273.458 149.152 273.963 152.722 274.381 156.145L280.337 155.418C279.91 151.917 279.392 148.257 278.764 144.516L272.847 145.51ZM275.154 163.272C275.529 167.224 275.788 170.853 275.967 174.012L281.957 173.673C281.775 170.448 281.51 166.741 281.127 162.704L275.154 163.272ZM276.276 181.157C276.326 182.854 276.347 184.192 276.355 185.101C276.359 185.556 276.36 185.904 276.361 186.136C276.361 186.252 276.36 186.339 276.36 186.396C276.36 186.424 276.36 186.445 276.36 186.459C276.36 186.466 276.36 186.47 276.36 186.473C276.36 186.475 276.36 186.476 276.36 186.476C276.36 186.476 276.36 186.476 276.36 186.476C276.36 186.476 276.36 186.476 276.36 186.476C276.36 186.476 276.36 186.476 276.36 186.476C276.36 186.476 276.36 186.476 279.36 186.5C282.36 186.524 282.36 186.524 282.36 186.524C282.36 186.524 282.36 186.524 282.36 186.524C282.36 186.523 282.36 186.523 282.36 186.523C282.36 186.523 282.36 186.522 282.36 186.521C282.36 186.52 282.36 186.518 282.36 186.515C282.36 186.51 282.36 186.504 282.36 186.495C282.36 186.477 282.36 186.452 282.36 186.419C282.36 186.354 282.361 186.259 282.361 186.134C282.36 185.885 282.359 185.519 282.355 185.046C282.346 184.099 282.325 182.722 282.274 180.981L276.276 181.157Z" fill="white"/>
</svg>
