<svg width="136" height="115" viewBox="0 0 136 115" fill="none" xmlns="http://www.w3.org/2000/svg">
<g clip-path="url(#clip0_513_72)">
<path d="M85.6175 40.81L79.3369 47.0929C78.9564 47.4735 78.5182 47.7963 78.0014 47.946C76.5143 48.3766 73.0665 48.8283 69.62 45.38C66.1713 41.9332 66.6235 38.4849 67.0542 36.9982C67.2038 36.4816 67.5264 36.0436 67.9066 35.6634L74.19 29.38C76.4775 27.095 73.73 25 71.6675 25C69.2598 24.9997 66.8757 25.4736 64.6512 26.3948C62.4267 27.3159 60.4054 28.6662 58.7029 30.3686C57.0003 32.0709 55.6497 34.092 54.7282 36.3164C53.8068 38.5407 53.3325 40.9248 53.3325 43.3325C53.3325 43.8044 53.3523 44.2717 53.3899 44.7339C53.5295 46.4498 53.0784 48.2041 51.8611 49.4214L41.8555 59.427C39.9029 61.3796 39.9029 64.5454 41.8555 66.498L48.4972 73.1398C50.4498 75.0923 53.6154 75.0924 55.568 73.14L65.5638 63.1459C66.7864 61.9234 68.5512 61.4705 70.2747 61.6073C70.7369 61.6439 71.2007 61.6632 71.665 61.665C74.0725 61.665 76.4563 61.1908 78.6805 60.2695C80.9047 59.3482 82.9257 57.9979 84.628 56.2955C86.3304 54.5932 87.6807 52.5722 88.602 50.348C89.5233 48.1238 89.9975 45.74 89.9975 43.3325C90 41.2575 87.9025 38.525 85.6175 40.81ZM41.5854 66.9467C39.6329 64.9935 36.4667 64.9932 34.5138 66.9459L7.5775 93.88C5.78263 95.6764 4.77441 98.1119 4.77441 100.651C4.77441 103.191 5.78263 105.626 7.5775 107.423C9.37387 109.217 11.8094 110.226 14.3488 110.226C16.8881 110.226 19.3236 109.217 21.12 107.423L48.0529 80.4874C50.0051 78.535 50.0054 75.3698 48.0534 73.4171L41.5854 66.9467ZM14.4075 104.595C13.921 104.595 13.4392 104.499 12.9897 104.313C12.5401 104.127 12.1317 103.854 11.7877 103.51C11.4436 103.166 11.1707 102.757 10.9845 102.308C10.7983 101.858 10.7025 101.377 10.7025 100.89C10.7025 100.403 10.7983 99.9217 10.9845 99.4722C11.1707 99.0226 11.4436 98.6142 11.7877 98.2702C12.1317 97.9261 12.5401 97.6532 12.9897 97.467C13.4392 97.2808 13.921 97.185 14.4075 97.185C15.3901 97.185 16.3325 97.5753 17.0273 98.2702C17.7222 98.965 18.1125 99.9074 18.1125 100.89C18.1125 101.873 17.7222 102.815 17.0273 103.51C16.3325 104.205 15.3901 104.595 14.4075 104.595Z" fill="#FF5C00"/>
<path d="M77.075 108.198C79.99 111.113 84.63 111.25 87.3775 108.5C90.1275 105.75 89.99 101.113 87.075 98.1976L28.9125 40.0351C25.995 37.1176 21.36 36.9826 18.61 39.7326C15.86 42.4826 15.9975 47.1201 18.9125 50.0351L77.075 108.198Z" fill="#FF5C00"/>
<path d="M54.0784 27.8912C53.8408 27.4091 53.3709 27.111 52.8739 26.9067C49.7139 25.6076 36.9688 21.3738 26.1101 32.2324L12.1457 46.1968C10.193 48.1495 6.25317 47.6444 4.06585 49.3299C3.91432 49.4467 3.76223 49.5803 3.61013 49.7324L1.11013 52.2324C1.11013 52.2324 1.11013 52.2324 1.11013 52.2324C1.11013 52.2324 -1.38987 54.7324 1.11013 57.2324L11.1101 67.2324C11.1101 67.2324 13.6101 69.7324 16.1101 67.2324L18.6101 64.7324C18.6101 64.7324 18.6101 64.7324 18.6101 64.7324C18.6102 64.7324 21.1101 62.2324 18.6101 59.7324C18.503 59.6253 18.5043 59.451 18.6151 59.3476C19.7245 58.3125 21.1216 57.3022 22.6413 56.9018C24.6998 56.3595 27.1256 56.2169 28.6308 54.7117L33.9251 49.4175C35.2642 48.0783 35.7068 46.0872 35.5438 44.2004C35.3158 41.5619 35.6373 37.7052 38.6101 34.7324C43.6101 29.7324 46.1101 29.7324 51.1101 29.7324C54.4275 29.7324 54.4434 28.6319 54.0784 27.8912Z" fill="#FF5C00"/>
</g>
<g filter="url(#filter0_d_513_72)">
<rect x="82" width="50" height="50" rx="15" fill="#FF5C00" fill-opacity="0.5" shape-rendering="crispEdges"/>
</g>
<path d="M113.736 20.374C113.736 21.1162 113.614 21.7852 113.37 22.3809C113.136 22.9668 112.809 23.4844 112.389 23.9336C111.979 24.373 111.49 24.7441 110.924 25.0469C110.367 25.3398 109.762 25.5645 109.107 25.7207V25.8086C110.836 26.0234 112.145 26.5508 113.033 27.3906C113.922 28.2207 114.366 29.3438 114.366 30.7598C114.366 31.6973 114.195 32.5664 113.854 33.3672C113.521 34.1582 113.004 34.8467 112.301 35.4326C111.607 36.0186 110.729 36.4775 109.664 36.8096C108.609 37.1318 107.364 37.293 105.929 37.293C104.776 37.293 103.692 37.1953 102.677 37C101.661 36.8145 100.714 36.5264 99.835 36.1357V32.2832C100.274 32.5176 100.738 32.7227 101.227 32.8984C101.715 33.0742 102.203 33.2256 102.691 33.3525C103.18 33.4697 103.658 33.5576 104.127 33.6162C104.605 33.6748 105.055 33.7041 105.475 33.7041C106.314 33.7041 107.013 33.626 107.569 33.4697C108.126 33.3135 108.57 33.0938 108.902 32.8105C109.234 32.5273 109.469 32.1904 109.605 31.7998C109.752 31.3994 109.825 30.9648 109.825 30.4961C109.825 30.0566 109.732 29.6611 109.547 29.3096C109.371 28.9482 109.078 28.6455 108.668 28.4014C108.268 28.1475 107.74 27.9521 107.086 27.8154C106.432 27.6787 105.626 27.6104 104.669 27.6104H103.146V24.4316H104.64C105.538 24.4316 106.285 24.3535 106.881 24.1973C107.477 24.0312 107.95 23.8115 108.302 23.5381C108.663 23.2549 108.917 22.9277 109.063 22.5566C109.21 22.1855 109.283 21.79 109.283 21.3701C109.283 20.6084 109.044 20.0127 108.565 19.583C108.097 19.1533 107.35 18.9385 106.324 18.9385C105.855 18.9385 105.416 18.9873 105.006 19.085C104.605 19.1729 104.229 19.29 103.878 19.4365C103.536 19.5732 103.219 19.7295 102.926 19.9053C102.643 20.0713 102.384 20.2373 102.149 20.4033L99.8643 17.3857C100.274 17.083 100.719 16.8047 101.197 16.5508C101.686 16.2969 102.213 16.0771 102.779 15.8916C103.346 15.6963 103.956 15.5449 104.61 15.4375C105.265 15.3301 105.963 15.2764 106.705 15.2764C107.76 15.2764 108.717 15.3936 109.576 15.6279C110.445 15.8525 111.188 16.1846 111.803 16.624C112.418 17.0537 112.892 17.5859 113.224 18.2207C113.565 18.8457 113.736 19.5635 113.736 20.374Z" fill="white"/>
<defs>
<filter id="filter0_d_513_72" x="78" y="0" width="58" height="58" filterUnits="userSpaceOnUse" color-interpolation-filters="sRGB">
<feFlood flood-opacity="0" result="BackgroundImageFix"/>
<feColorMatrix in="SourceAlpha" type="matrix" values="0 0 0 0 0 0 0 0 0 0 0 0 0 0 0 0 0 0 127 0" result="hardAlpha"/>
<feOffset dy="4"/>
<feGaussianBlur stdDeviation="2"/>
<feComposite in2="hardAlpha" operator="out"/>
<feColorMatrix type="matrix" values="0 0 0 0 0 0 0 0 0 0 0 0 0 0 0 0 0 0 0.5 0"/>
<feBlend mode="normal" in2="BackgroundImageFix" result="effect1_dropShadow_513_72"/>
<feBlend mode="normal" in="SourceGraphic" in2="effect1_dropShadow_513_72" result="shape"/>
</filter>
<clipPath id="clip0_513_72">
<rect width="90" height="90" fill="white" transform="translate(0 25)"/>
</clipPath>
</defs>
</svg>
