<svg width="19" height="19" viewBox="0 0 19 19" fill="none" xmlns="http://www.w3.org/2000/svg">
<path d="M0.384613 9.80835C0.384613 9.35869 0.538388 8.92745 0.812109 8.6095C1.08583 8.29155 1.45708 8.11292 1.84418 8.11292H13.4039L9.57013 3.65959C9.31231 3.33819 9.17196 2.9131 9.17863 2.47387C9.1853 2.03464 9.33848 1.61556 9.6059 1.30493C9.87332 0.994298 10.2341 0.816363 10.6122 0.808614C10.9903 0.800864 11.3563 0.963904 11.633 1.26338L17.9578 8.61025C18.2311 8.92814 18.3846 9.35906 18.3846 9.80835C18.3846 10.2576 18.2311 10.6886 17.9578 11.0065L11.633 18.3533C11.3563 18.6528 10.9903 18.8158 10.6122 18.8081C10.2341 18.8003 9.87332 18.6224 9.6059 18.3118C9.33848 18.0011 9.1853 17.5821 9.17863 17.1428C9.17196 16.7036 9.31231 16.2785 9.57013 15.9571L13.4039 11.5038H1.84418C1.45708 11.5038 1.08583 11.3252 0.812109 11.0072C0.538388 10.6892 0.384613 10.258 0.384613 9.80835Z" fill="white"/>
</svg>
