<svg width="86" height="86" viewBox="0 0 86 86" fill="none" xmlns="http://www.w3.org/2000/svg">
<path d="M3 43C3 48.2529 4.03463 53.4543 6.04482 58.3073C8.05501 63.1604 11.0014 67.5699 14.7157 71.2843C18.4301 74.9986 22.8396 77.945 27.6927 79.9552C32.5457 81.9654 37.7471 83 43 83C48.2529 83 53.4543 81.9654 58.3073 79.9552C63.1604 77.945 67.5699 74.9986 71.2843 71.2843C74.9986 67.5699 77.945 63.1604 79.9552 58.3073C81.9654 53.4543 83 48.2529 83 43C83 37.7471 81.9654 32.5457 79.9552 27.6927C77.945 22.8396 74.9986 18.4301 71.2843 14.7157C67.5699 11.0014 63.1604 8.05501 58.3073 6.04482C53.4543 4.03463 48.2529 3 43 3C37.7471 3 32.5457 4.03463 27.6927 6.04482C22.8396 8.05501 18.4301 11.0014 14.7157 14.7157C11.0014 18.4301 8.05501 22.8396 6.04482 27.6927C4.03463 32.5457 3 37.7471 3 43Z" stroke="#FF5C00" stroke-width="6" stroke-linecap="round" stroke-linejoin="round"/>
<path d="M55.4444 29.6666C54.6393 28.27 53.4695 27.1186 52.0604 26.3357C50.6512 25.5528 49.0556 25.1679 47.4444 25.2222H38.5555C36.1981 25.2222 33.9371 26.1587 32.2702 27.8257C30.6032 29.4926 29.6667 31.7536 29.6667 34.111C29.6667 36.4685 30.6032 38.7294 32.2702 40.3964C33.9371 42.0634 36.1981 42.9999 38.5555 42.9999H47.4444C49.8019 42.9999 52.0628 43.9364 53.7298 45.6034C55.3968 47.2704 56.3333 49.5313 56.3333 51.8888C56.3333 54.2463 55.3968 56.5072 53.7298 58.1742C52.0628 59.8412 49.8019 60.7777 47.4444 60.7777H38.5555C36.9444 60.832 35.3488 60.447 33.9396 59.6641C32.5304 58.8813 31.3607 57.7299 30.5555 56.3333M43 20.7777V65.2222" stroke="#FF5C00" stroke-width="6" stroke-linecap="round" stroke-linejoin="round"/>
</svg>
