<svg width="105" height="80" viewBox="0 0 105 80" fill="none" xmlns="http://www.w3.org/2000/svg">
<path d="M88.8176 6.64849C82.1693 3.5493 74.9712 1.29989 67.4732 0.000229931C67.4074 -0.00187253 67.342 0.0104646 67.2816 0.0363743C67.2211 0.0622839 67.1671 0.101137 67.1233 0.150192C66.2235 1.79976 65.1738 3.9492 64.4739 5.59876C56.521 4.39908 48.4331 4.39908 40.4802 5.59876C39.7804 3.89921 38.7307 1.79976 37.7809 0.150192C37.7309 0.0502179 37.581 0.000229931 37.431 0.000229931C29.933 1.29989 22.7849 3.5493 16.0866 6.64849C16.0366 6.64849 15.9866 6.69848 15.9366 6.74846C2.34021 27.0931 -1.40881 46.888 0.440705 66.4828C0.440705 66.5828 0.490692 66.6828 0.590666 66.7328C9.58831 73.331 18.236 77.33 26.7838 79.9793C26.9338 80.0293 27.0837 79.9793 27.1337 79.8793C29.1332 77.13 30.9327 74.2308 32.4823 71.1816C32.5823 70.9817 32.4823 70.7817 32.2824 70.7317C29.4331 69.632 26.7338 68.3323 24.0845 66.8327C23.8846 66.7328 23.8846 66.4328 24.0345 66.2829C24.5844 65.883 25.1342 65.4331 25.6841 65.0332C25.7841 64.9332 25.934 64.9332 26.034 64.9832C43.2295 72.8312 61.7747 72.8312 78.7702 64.9832C78.8702 64.9332 79.0201 64.9332 79.1201 65.0332C79.67 65.4831 80.2198 65.883 80.7697 66.3329C80.9696 66.4828 80.9696 66.7827 80.7197 66.8827C78.1204 68.4323 75.3711 69.682 72.5218 70.7817C72.3219 70.8317 72.2719 71.0816 72.3219 71.2316C73.9215 74.2808 75.721 77.18 77.6705 79.9293C77.8205 79.9793 77.9704 80.0293 78.1204 79.9793C86.7181 77.33 95.3659 73.331 104.363 66.7328C104.463 66.6828 104.513 66.5828 104.513 66.4828C106.713 43.8387 100.864 24.1939 89.0175 6.74846C88.9675 6.69848 88.9175 6.64849 88.8176 6.64849ZM35.0816 54.536C29.933 54.536 25.6341 49.7872 25.6341 43.9387C25.6341 38.0903 29.833 33.3415 35.0816 33.3415C40.3803 33.3415 44.5792 38.1402 44.5292 43.9387C44.5292 49.7872 40.3303 54.536 35.0816 54.536ZM69.9225 54.536C64.7739 54.536 60.475 49.7872 60.475 43.9387C60.475 38.0903 64.6739 33.3415 69.9225 33.3415C75.2211 33.3415 79.42 38.1402 79.37 43.9387C79.37 49.7872 75.2211 54.536 69.9225 54.536Z" fill="#0076FF"/>
</svg>
