<svg width="45" height="76" viewBox="0 0 45 76" fill="none" xmlns="http://www.w3.org/2000/svg">
<path d="M24.9999 2.97857C24.9881 1.32176 23.6354 -0.0117576 21.9786 7.63535e-05C20.3218 0.0119103 18.9882 1.36462 19.0001 3.02143L24.9999 2.97857ZM20.3939 75.1387C21.5738 76.3019 23.4732 76.2883 24.6364 75.1084L43.5915 55.8806C44.7546 54.7007 44.7411 52.8013 43.5611 51.6381C42.3812 50.4749 40.4818 50.4885 39.3186 51.6684L22.4697 68.7597L5.37836 51.9108C4.19844 50.7476 2.299 50.7612 1.13582 51.9411C-0.0273527 53.121 -0.0137857 55.0205 1.16613 56.1837L20.3939 75.1387ZM19.0001 3.02143L19.0376 8.2716L25.0374 8.22874L24.9999 2.97857L19.0001 3.02143ZM19.0876 15.2718L19.1626 25.7722L25.1624 25.7293L25.0874 15.229L19.0876 15.2718ZM19.2126 32.7724L19.2876 43.2727L25.2874 43.2299L25.2124 32.7295L19.2126 32.7724ZM19.3376 50.273L19.4126 60.7733L25.4124 60.7304L25.3374 50.2301L19.3376 50.273ZM19.4626 67.7735L19.5001 73.0237L25.4999 72.9808L25.4624 67.7307L19.4626 67.7735ZM24.9999 2.97857C24.9881 1.32176 23.6354 -0.0117576 21.9786 7.63535e-05C20.3218 0.0119103 18.9882 1.36462 19.0001 3.02143L24.9999 2.97857ZM20.3939 75.1387C21.5738 76.3019 23.4732 76.2883 24.6364 75.1084L43.5915 55.8806C44.7546 54.7007 44.7411 52.8013 43.5611 51.6381C42.3812 50.4749 40.4818 50.4885 39.3186 51.6684L22.4697 68.7597L5.37836 51.9108C4.19844 50.7476 2.299 50.7612 1.13582 51.9411C-0.0273527 53.121 -0.0137857 55.0205 1.16613 56.1837L20.3939 75.1387ZM19.0001 3.02143L19.0376 8.2716L25.0374 8.22874L24.9999 2.97857L19.0001 3.02143ZM19.0876 15.2718L19.1626 25.7722L25.1624 25.7293L25.0874 15.229L19.0876 15.2718ZM19.2126 32.7724L19.2876 43.2727L25.2874 43.2299L25.2124 32.7295L19.2126 32.7724ZM19.3376 50.273L19.4126 60.7733L25.4124 60.7304L25.3374 50.2301L19.3376 50.273ZM19.4626 67.7735L19.5001 73.0237L25.4999 72.9808L25.4624 67.7307L19.4626 67.7735Z" fill="white"/>
</svg>
