<svg width="95" height="80" viewBox="0 0 95 80" fill="none" xmlns="http://www.w3.org/2000/svg">
<path fill-rule="evenodd" clip-rule="evenodd" d="M32.7622 72.7953C18.9128 62.1836 0 44.6543 0 28.0803C0 0.391047 25.8822 -9.94772 47.0586 11.4357C68.2349 -9.94772 94.1171 0.391047 94.1171 28.0803C94.1171 44.6543 75.1996 62.1836 61.3549 72.7953C55.0867 77.5953 51.9526 80 47.0586 80C42.1645 80 39.0304 77.6 32.7622 72.7953ZM68.2349 15.2945C69.171 15.2945 70.0687 15.6663 70.7306 16.3282C71.3924 16.9901 71.7643 17.8878 71.7643 18.8239V24.7062H77.6466C78.5827 24.7062 79.4804 25.078 80.1423 25.7399C80.8042 26.4018 81.176 27.2995 81.176 28.2356C81.176 29.1716 80.8042 30.0694 80.1423 30.7312C79.4804 31.3931 78.5827 31.765 77.6466 31.765H71.7643V37.6473C71.7643 38.5834 71.3924 39.4811 70.7306 40.143C70.0687 40.8048 69.171 41.1767 68.2349 41.1767C67.2989 41.1767 66.4011 40.8048 65.7393 40.143C65.0774 39.4811 64.7055 38.5834 64.7055 37.6473V31.765H58.8232C57.8871 31.765 56.9894 31.3931 56.3275 30.7312C55.6656 30.0694 55.2938 29.1716 55.2938 28.2356C55.2938 27.2995 55.6656 26.4018 56.3275 25.7399C56.9894 25.078 57.8871 24.7062 58.8232 24.7062H64.7055V18.8239C64.7055 17.8878 65.0774 16.9901 65.7393 16.3282C66.4011 15.6663 67.2989 15.2945 68.2349 15.2945Z" fill="#FF5C00"/>
</svg>
