<svg width="85" height="79" viewBox="0 0 85 79" fill="none" xmlns="http://www.w3.org/2000/svg">
<path d="M16.5933 1.11535C15.4255 -0.0530887 13.5316 -0.0539867 12.3627 1.11334C11.1925 2.28184 11.192 4.17798 12.3617 5.34703L14.4304 7.41475C15.5987 8.58255 17.4925 8.58232 18.6606 7.41424C19.8286 6.24617 19.8289 4.35241 18.6611 3.18406L16.5933 1.11535ZM71.8718 1.11659C70.7037 -0.0523289 68.8091 -0.0528913 67.6404 1.11534L65.5717 3.18306C64.4025 4.35168 64.4026 6.24701 65.5719 7.4155C66.7402 8.58301 68.6336 8.58289 69.8018 7.41525L71.8705 5.34753C73.0391 4.1795 73.0397 2.28532 71.8718 1.11659ZM42.1163 0.877186C41.1236 0.889219 40.1188 0.946377 39.108 1.06972C39.078 1.06972 39.0479 1.0637 39.0178 1.06972C26.8161 2.46858 17.1053 12.3268 15.4176 24.4744C14.0699 34.2514 18.101 43.1169 24.8186 48.8266C27.4731 51.0922 29.2978 54.1724 30.012 57.5813C30.0621 57.8206 30.0831 58.0648 30.0831 58.3093V71.9917C30.0831 74.2008 31.874 75.9917 34.0831 75.9917H34.6437C36.0669 75.9917 37.3218 76.8361 38.4377 77.7193C39.4506 78.5211 40.7228 79 42.1163 79C43.5099 79 44.7821 78.5211 45.795 77.7193C46.9109 76.8361 48.1658 75.9917 49.589 75.9917H50.1496C52.3587 75.9917 54.1496 74.2008 54.1496 71.9917V64.0998C54.1496 64.0217 54.2129 63.9584 54.291 63.9584C54.3691 63.9584 54.4324 63.8951 54.4324 63.8171V60.3846C54.4324 55.9744 56.7247 51.5281 60.449 48.0716C65.4308 43.0838 69.1911 35.9992 69.1911 27.8617C69.1911 13.0007 56.9594 0.738804 42.1163 0.877186ZM42.1133 6.89533C42.1153 6.89433 42.1175 6.89379 42.1198 6.89376C53.7453 6.73323 63.1745 16.2508 63.1745 27.8617C63.1745 34.1366 60.2791 39.6653 56.2634 43.6985C56.2374 43.7246 56.2374 43.7667 56.2635 43.7928C56.2903 43.8196 56.2893 43.8633 56.2615 43.8891C53.1349 46.7894 50.875 50.472 49.6955 54.5264C49.1361 56.4494 47.4778 57.9448 45.475 57.9448H39.3333C37.3211 57.9448 35.6593 56.4365 35.1251 54.4964C34.0549 50.6096 31.9988 46.9906 28.7625 44.2179C23.4468 39.7054 20.279 32.9067 21.3379 25.2295C22.6526 15.7533 30.3418 8.13323 39.7639 7.08935C40.5406 6.98104 41.323 6.91679 42.107 6.8969C42.1092 6.89684 42.1113 6.89631 42.1133 6.89533ZM3.00831 27.8617C1.34687 27.8617 0 29.2086 0 30.87C0 32.5315 1.34687 33.8783 3.00831 33.8783H6.01662C7.67807 33.8783 9.02493 32.5315 9.02493 30.87C9.02493 29.2086 7.67807 27.8617 6.01662 27.8617H3.00831ZM78.2161 27.8617C76.5546 27.8617 75.2078 29.2086 75.2078 30.87C75.2078 32.5315 76.5546 33.8783 78.2161 33.8783H81.2244C82.8858 33.8783 84.2327 32.5315 84.2327 30.87C84.2327 29.2086 82.8858 27.8617 81.2244 27.8617H78.2161ZM18.6601 54.3268C17.4924 53.1583 15.5985 53.1578 14.4301 54.3256L12.3629 56.3918C11.194 57.5601 11.1938 59.4549 12.3624 60.6235C13.5312 61.7923 15.4263 61.7918 16.5946 60.6225L18.6603 58.5548C19.8271 57.3869 19.8269 55.4946 18.6601 54.3268ZM69.8023 54.3253C68.634 53.1575 66.7402 53.1578 65.5721 54.3258C64.4041 55.4939 64.4038 57.3877 65.5716 58.556L67.6379 60.6232C68.8063 61.7923 70.7013 61.7925 71.87 60.6237C73.0388 59.455 73.0386 57.56 71.8695 56.3915L69.8023 54.3253ZM36.0997 66.9698C36.0997 65.3083 37.4466 63.9615 39.108 63.9615H45.1247C46.7861 63.9615 48.133 65.3083 48.133 66.9698C48.133 68.6312 46.7861 69.9781 45.1247 69.9781H39.108C37.4466 69.9781 36.0997 68.6312 36.0997 66.9698Z" fill="#FF5C00"/>
</svg>
