<svg width="147" height="130" viewBox="0 0 147 130" fill="none" xmlns="http://www.w3.org/2000/svg">
<path d="M91.6667 29.1665H18.3333C13.2779 29.1665 9.16666 33.2778 9.16666 38.3332V93.3332C9.16666 98.3886 13.2779 102.5 18.3333 102.5H29.0833C30.7402 102.5 32.0833 103.843 32.0833 105.5V114.466C32.0833 116.798 34.6275 118.238 36.6271 117.038L60.1403 102.928C60.6066 102.648 61.1402 102.5 61.684 102.5H91.6667C96.7221 102.5 100.833 98.3886 100.833 93.3332V38.3332C100.833 33.2778 96.7221 29.1665 91.6667 29.1665ZM91.6667 90.3332C91.6667 91.99 90.3235 93.3332 88.6667 93.3332H59.1444C58.6009 93.3332 58.0675 93.4809 57.6014 93.7605L45.7931 100.843C43.7935 102.042 41.25 100.602 41.25 98.2702V96.3332C41.25 94.6763 39.9068 93.3332 38.25 93.3332H21.3333C19.6765 93.3332 18.3333 91.99 18.3333 90.3332V41.3332C18.3333 39.6763 19.6765 38.3332 21.3333 38.3332H88.6667C90.3235 38.3332 91.6667 39.6763 91.6667 41.3332V90.3332Z" fill="#0076FF"/>
<path d="M76.7441 55.1534C77.9157 53.9818 77.9157 52.0824 76.7441 50.9108L74.5059 48.6726C73.3343 47.501 71.4348 47.501 70.2632 48.6726L52.538 66.3979C51.3664 67.5694 49.4669 67.5694 48.2953 66.3979L42.0284 60.1309C40.8568 58.9594 38.9573 58.9594 37.7857 60.1309L35.5476 62.3691C34.376 63.5407 34.376 65.4402 35.5476 66.6118L48.2953 79.3595C49.4669 80.5311 51.3664 80.5311 52.538 79.3595L76.7441 55.1534Z" fill="#0076FF"/>
<g filter="url(#filter0_d_513_71)">
<rect x="93" width="50" height="50" rx="15" fill="#0076FF" fill-opacity="0.5" shape-rendering="crispEdges"/>
</g>
<path d="M125.571 36H111.201V32.8506L116.24 27.416C116.875 26.7324 117.451 26.1025 117.969 25.5264C118.486 24.9502 118.931 24.3887 119.302 23.8418C119.673 23.2949 119.961 22.7383 120.166 22.1719C120.371 21.6055 120.474 20.9951 120.474 20.3408C120.474 19.6182 120.254 19.0566 119.814 18.6562C119.385 18.2559 118.804 18.0557 118.071 18.0557C117.3 18.0557 116.558 18.2461 115.845 18.627C115.132 19.0078 114.385 19.5498 113.604 20.2529L111.143 17.3379C111.582 16.9375 112.041 16.5566 112.52 16.1953C112.998 15.8242 113.525 15.4971 114.102 15.2139C114.678 14.9307 115.312 14.7061 116.006 14.54C116.699 14.3643 117.476 14.2764 118.335 14.2764C119.36 14.2764 120.278 14.418 121.089 14.7012C121.909 14.9844 122.607 15.3896 123.184 15.917C123.76 16.4346 124.199 17.0645 124.502 17.8066C124.814 18.5488 124.971 19.3838 124.971 20.3115C124.971 21.1514 124.824 21.957 124.531 22.7285C124.238 23.4902 123.838 24.2422 123.33 24.9844C122.822 25.7168 122.231 26.4492 121.558 27.1816C120.894 27.9043 120.181 28.6416 119.419 29.3936L116.841 31.9863V32.1914H125.571V36Z" fill="white"/>
<defs>
<filter id="filter0_d_513_71" x="89" y="0" width="58" height="58" filterUnits="userSpaceOnUse" color-interpolation-filters="sRGB">
<feFlood flood-opacity="0" result="BackgroundImageFix"/>
<feColorMatrix in="SourceAlpha" type="matrix" values="0 0 0 0 0 0 0 0 0 0 0 0 0 0 0 0 0 0 127 0" result="hardAlpha"/>
<feOffset dy="4"/>
<feGaussianBlur stdDeviation="2"/>
<feComposite in2="hardAlpha" operator="out"/>
<feColorMatrix type="matrix" values="0 0 0 0 0 0 0 0 0 0 0 0 0 0 0 0 0 0 0.5 0"/>
<feBlend mode="normal" in2="BackgroundImageFix" result="effect1_dropShadow_513_71"/>
<feBlend mode="normal" in="SourceGraphic" in2="effect1_dropShadow_513_71" result="shape"/>
</filter>
</defs>
</svg>
