<svg width="77" height="80" viewBox="0 0 77 80" fill="none" xmlns="http://www.w3.org/2000/svg">
<g clip-path="url(#clip0_235_225)">
<path d="M6.71585 20.5881C7.18485 20.5956 7.65066 20.5096 8.08613 20.3353C8.5216 20.161 8.91804 19.9018 9.25235 19.5727C9.58665 19.2437 9.85215 18.8514 10.0334 18.4188C10.2146 17.9862 10.3079 17.5218 10.3079 17.0527C10.3079 16.5836 10.2146 16.1193 10.0334 15.6866C9.85215 15.254 9.58665 14.8617 9.25235 14.5327C8.91804 14.2037 8.5216 13.9444 8.08613 13.7701C7.65066 13.5958 7.18485 13.5099 6.71585 13.5173C4.78421 13.5466 3.23346 15.1209 3.23346 17.0529C3.23346 18.9848 4.78421 20.5588 6.71585 20.5881ZM60.863 17.5914C61.3312 17.5974 61.7959 17.5104 62.2301 17.3354C62.6644 17.1604 63.0596 16.9009 63.3927 16.5719C63.7259 16.243 63.9904 15.8511 64.1709 15.4191C64.3515 14.9871 64.4444 14.5236 64.4443 14.0554C64.4443 13.5872 64.3512 13.1237 64.1706 12.6917C63.99 12.2598 63.7253 11.868 63.3921 11.5391C63.0588 11.2103 62.6636 10.9509 62.2293 10.776C61.795 10.6011 61.3303 10.5142 60.8621 10.5203C58.9305 10.5496 57.38 12.1242 57.38 14.0561C57.3803 15.9881 58.9314 17.5624 60.863 17.5914Z" fill="#FF5C00"/>
<path d="M63.7323 63.014C64.2013 63.0214 64.6671 62.9354 65.1025 62.7611C65.538 62.5867 65.9344 62.3274 66.2686 61.9984C66.6029 61.6693 66.8684 61.277 67.0495 60.8443C67.2307 60.4117 67.324 59.9473 67.3239 59.4782C67.3238 59.0091 67.2305 58.5448 67.0492 58.1122C66.8679 57.6795 66.6023 57.2873 66.268 56.9583C65.9336 56.6293 65.5372 56.3702 65.1017 56.1959C64.6662 56.0216 64.2004 55.9358 63.7314 55.9433C61.7997 55.9725 60.2493 57.5472 60.2496 59.4791C60.2499 61.411 61.8006 62.9851 63.7323 63.014ZM21.1558 7.07134C21.624 7.07743 22.0887 6.99047 22.523 6.81553C22.9573 6.64058 23.3525 6.38112 23.6857 6.05222C24.0189 5.72331 24.2835 5.3315 24.4641 4.89953C24.6446 4.46755 24.7376 4.00402 24.7376 3.53582C24.7376 3.06762 24.6446 2.60409 24.4641 2.17212C24.2835 1.74014 24.0189 1.34833 23.6857 1.01943C23.3525 0.69052 22.9573 0.431064 22.523 0.256117C22.0887 0.0811697 21.624 -0.00578516 21.1558 0.000298531C19.2239 0.0298508 17.6735 1.60388 17.6735 3.53582C17.6735 5.46776 19.2239 7.04209 21.1558 7.07134Z" fill="#0076FF"/>
<path d="M42.0732 31.6238C41.6538 31.6237 41.2401 31.5281 40.8632 31.3443C40.4863 31.1605 40.1563 30.8932 39.8981 30.5628C39.6399 30.2324 39.4604 29.8475 39.3731 29.4374C39.2858 29.0273 39.2931 28.6027 39.3943 28.1958C39.5048 27.7534 39.5949 27.3092 39.6627 26.8659C38.8343 27.2079 37.9518 27.4004 37.0561 27.4343C35.4505 27.4955 34.0129 27.2247 32.7875 26.6313C31.5867 26.0559 30.5867 25.1327 29.9176 23.9814C28.5997 21.6973 28.7135 18.6925 30.2054 16.3262C31.6278 14.0671 34.037 12.8444 36.649 13.0441C38.6609 13.2014 40.4242 13.9549 41.8364 15.2477C42.0937 14.5219 42.3398 13.7455 42.5746 12.9185C44.0173 7.82652 44.4937 2.71339 44.4976 2.66174C44.5303 2.30083 44.6337 1.94989 44.802 1.62897C44.9703 1.30805 45.2002 1.02344 45.4786 0.791409C45.7569 0.559378 46.0783 0.384472 46.4243 0.276687C46.7702 0.168902 47.1341 0.130351 47.4949 0.163237C48.2237 0.229887 48.8962 0.583102 49.3647 1.14528C49.8332 1.70746 50.0593 2.43262 49.9934 3.16145C49.9734 3.3904 49.4657 8.84204 47.8836 14.4256C47.0848 17.245 46.1409 19.6274 45.0717 21.5295C45.1505 21.9534 45.2133 22.3884 45.26 22.8346C45.4827 24.9871 45.3054 27.3044 44.7484 29.5346C44.5984 30.1308 44.2539 30.6599 43.7693 31.0383C43.2848 31.4166 42.6879 31.6229 42.0732 31.6238ZM36.0663 18.5408C35.7809 18.5408 35.2782 18.6244 34.8734 19.2662C34.486 19.8811 34.4102 20.7208 34.6979 21.2197C35.0806 21.8832 36.2066 21.9411 36.8442 21.917C37.5678 21.8895 38.3093 21.4358 39.0346 20.6089C38.9139 20.3559 38.771 20.1139 38.6078 19.8859C38.0087 19.054 37.2505 18.6286 36.2203 18.548C36.1815 18.5456 36.1293 18.5408 36.0663 18.5408Z" fill="#0076FF"/>
<path d="M34.1376 39.1845C22.6919 30.1624 10.7287 26.2535 7.41701 30.4544C7.10541 30.8539 6.87639 31.3114 6.74328 31.8003C6.723 31.8597 6.70743 31.9206 6.69671 31.9824V31.9896C6.65233 32.178 6.6192 32.3688 6.59731 32.5618L0.117311 70.5015C-0.9206 76.5947 5.11134 81.4732 10.8537 79.186L45.9943 65.1836C46.614 64.937 48.1391 63.995 48.5564 63.475C48.6671 63.3667 48.7702 63.252 48.866 63.1308C52.177 58.9293 45.5824 48.209 34.1376 39.1836V39.1845Z" fill="white"/>
<path d="M48.8621 63.1325C52.1756 58.9295 45.5833 48.2072 34.1377 39.1845C22.692 30.1615 10.7272 26.2543 7.41408 30.4573C4.10095 34.6603 10.6926 45.3827 22.1383 54.4054C33.5839 63.4283 45.5487 67.3355 48.8621 63.1325Z" fill="white"/>
<path d="M46.8639 60.6847C49.5827 57.2352 43.5935 47.9794 33.4857 40.0113C23.3779 32.0427 12.9791 28.3797 10.2606 31.8283C7.54123 35.2779 13.5305 44.5337 23.6382 52.5018C33.7457 60.4704 44.1448 64.1343 46.8639 60.6847Z" fill="black"/>
<path d="M22.7042 74.4645C18.4274 74.4853 14.9418 72.3448 10.7167 69.0146C5.80028 65.1373 2.5352 60.497 2.27759 57.8537L0.884155 66.011C1.52893 68.3388 3.72684 71.2895 6.9146 73.8024C9.56624 75.8931 12.2412 77.3286 15.0146 77.5277L22.7042 74.4633V74.4645ZM18.4259 59.6585C10.234 53.1997 4.91222 45.7877 5.06177 41.5483L3.70386 49.4976C3.80863 53.2842 8.23371 59.4033 14.5283 64.3657C20.1683 68.8122 26.0456 71.9418 30.5462 71.3397L38.1859 68.2949C32.0307 68.7203 25.5364 65.2657 18.4259 59.6585Z" fill="white"/>
<path d="M35.3836 43.2991C35.8518 43.3052 36.3165 43.2183 36.7508 43.0433C37.1851 42.8684 37.5803 42.6089 37.9135 42.28C38.2467 41.9511 38.5113 41.5593 38.6918 41.1273C38.8724 40.6953 38.9654 40.2318 38.9654 39.7636C38.9654 39.2954 38.8724 38.8319 38.6918 38.3999C38.5113 37.9679 38.2467 37.5761 37.9135 37.2472C37.5803 36.9183 37.1851 36.6588 36.7508 36.4839C36.3165 36.309 35.8518 36.222 35.3836 36.2281C33.452 36.2573 31.9012 37.8317 31.9012 39.7636C31.9012 41.6955 33.452 43.2699 35.3836 43.2991Z" fill="#FF5C00"/>
<path d="M54.4513 36.4199L54.4773 36.391C54.5095 36.3564 54.5692 36.2925 54.6552 36.2056C54.9229 35.9392 55.2018 35.6843 55.491 35.4414C56.5537 34.5519 57.7149 33.7877 58.9519 33.1638C61.9752 31.634 66.4767 30.3856 72.3803 31.7468C74.1543 32.1558 75.9235 31.0495 76.3328 29.2758C76.7418 27.502 75.6355 25.7325 73.8618 25.3235C66.2194 23.5614 60.1432 25.1725 55.9746 27.2835C54.282 28.1376 52.6936 29.1842 51.2412 30.4026C50.8053 30.7689 50.3855 31.154 49.9829 31.5567C49.8268 31.7136 49.6745 31.8743 49.5262 32.0387L49.4904 32.079L49.4779 32.0934L49.4719 32.0999L49.4698 32.1023C49.4689 32.1038 49.4671 32.1053 51.9656 34.2546L49.4671 32.1053C48.3098 33.485 48.4737 35.5381 49.8352 36.7167C51.1967 37.8952 53.2519 37.7632 54.4513 36.4199ZM21.8 12.9098C21.5541 12.5194 21.2336 12.1814 20.8569 11.915C20.4801 11.6487 20.0546 11.4593 19.6045 11.3577C19.1545 11.2561 18.6888 11.2443 18.2342 11.3229C17.7796 11.4016 17.3449 11.5692 16.9552 11.8161C16.5652 12.0622 16.2275 12.3827 15.9615 12.7594C15.6954 13.1361 15.5062 13.5615 15.4046 14.0113C15.303 14.4612 15.291 14.9266 15.3694 15.3811C15.4477 15.8355 15.6148 16.2701 15.8612 16.6599C15.9886 16.8638 18.6009 21.0958 19.1376 26.8916C19.6838 32.7802 17.9537 38.1931 13.9874 43.0468C15.3229 44.7441 16.9301 46.5083 18.7659 48.2728C21.3062 45.3373 23.2176 42.1826 24.4734 38.845C26.0182 34.7387 26.5647 30.3847 26.0988 25.9053C25.3564 18.7787 22.2561 13.6337 21.8 12.9098Z" fill="#FF5C00"/>
<path d="M65.7439 46.7398C67.5355 47.2033 68.8018 47.7087 69.3489 47.9439C69.9885 48.3364 70.7361 48.5154 71.4841 48.4554C72.232 48.3953 72.9415 48.0991 73.5101 47.6096C73.8868 47.2841 74.1907 46.8828 74.4019 46.432C74.6132 45.9812 74.727 45.491 74.7361 44.9932C74.7486 44.243 74.5223 43.5082 74.0898 42.8951C73.6573 42.282 73.0411 41.8223 72.3301 41.5824C70.6531 40.8377 64.2988 38.3227 55.8991 38.7696C50.2451 39.0702 44.8081 40.6362 39.74 43.4287C34.9412 46.0735 30.4851 49.8203 26.4397 54.6003C28.3698 55.9737 30.3804 57.2304 32.4606 58.3636C39.291 50.5786 47.1719 46.3586 55.9531 45.8009C59.2458 45.6011 62.5492 45.9179 65.7439 46.7398Z" fill="#0076FF"/>
</g>
<defs>
<clipPath id="clip0_235_225">
<rect width="76.4179" height="80" fill="white"/>
</clipPath>
</defs>
</svg>
