<svg width="157" height="524" viewBox="0 0 157 524" fill="none" xmlns="http://www.w3.org/2000/svg">
<path fill-rule="evenodd" clip-rule="evenodd" d="M152 64V257H112V262H152V455H112V460H152V524H157V0H152V59H112V64H152Z" fill="url(#paint0_linear_568_100)"/>
<path d="M3.71938 57V42.88H5.91938L6.85938 45.7V57H3.71938ZM13.4594 57L5.13938 46.34L5.91938 42.88L14.2394 53.54L13.4594 57ZM13.4594 57L12.6194 54.18V42.88H15.7594V57H13.4594ZM22.885 57.22C21.885 57.22 20.9783 57 20.165 56.56C19.365 56.1067 18.7317 55.4933 18.265 54.72C17.7983 53.9467 17.565 53.08 17.565 52.12C17.565 51.16 17.7983 50.3 18.265 49.54C18.7317 48.78 19.365 48.18 20.165 47.74C20.965 47.2867 21.8717 47.06 22.885 47.06C23.8983 47.06 24.805 47.28 25.605 47.72C26.405 48.16 27.0383 48.7667 27.505 49.54C27.9717 50.3 28.205 51.16 28.205 52.12C28.205 53.08 27.9717 53.9467 27.505 54.72C27.0383 55.4933 26.405 56.1067 25.605 56.56C24.805 57 23.8983 57.22 22.885 57.22ZM22.885 54.44C23.325 54.44 23.7117 54.3467 24.045 54.16C24.3783 53.96 24.6317 53.6867 24.805 53.34C24.9917 52.98 25.085 52.5733 25.085 52.12C25.085 51.6667 24.9917 51.2733 24.805 50.94C24.6183 50.5933 24.3583 50.3267 24.025 50.14C23.705 49.94 23.325 49.84 22.885 49.84C22.4583 49.84 22.0783 49.94 21.745 50.14C21.4117 50.3267 21.1517 50.5933 20.965 50.94C20.7783 51.2867 20.685 51.6867 20.685 52.14C20.685 52.58 20.7783 52.98 20.965 53.34C21.1517 53.6867 21.4117 53.96 21.745 54.16C22.0783 54.3467 22.4583 54.44 22.885 54.44ZM32.515 57L28.395 47.28H31.695L34.495 55.38H33.055L35.855 47.28H39.095L34.975 56.98L32.515 57ZM44.7237 57.22C43.6704 57.22 42.7304 57.0067 41.9038 56.58C41.0904 56.14 40.4504 55.5333 39.9838 54.76C39.5171 53.9867 39.2838 53.1133 39.2838 52.14C39.2838 51.1667 39.5104 50.3 39.9638 49.54C40.4304 48.7667 41.0571 48.16 41.8438 47.72C42.6304 47.28 43.5171 47.06 44.5038 47.06C45.4638 47.06 46.3104 47.2667 47.0438 47.68C47.7771 48.0933 48.3504 48.6667 48.7638 49.4C49.1904 50.1333 49.4037 50.9733 49.4037 51.92C49.4037 52.0933 49.3904 52.28 49.3638 52.48C49.3504 52.6667 49.3171 52.8867 49.2638 53.14L40.8838 53.16V51.06L47.9638 51.04L46.6438 51.92C46.6304 51.36 46.5438 50.9 46.3838 50.54C46.2238 50.1667 45.9838 49.8867 45.6638 49.7C45.3571 49.5 44.9771 49.4 44.5238 49.4C44.0438 49.4 43.6238 49.5133 43.2638 49.74C42.9171 49.9533 42.6438 50.26 42.4438 50.66C42.2571 51.06 42.1638 51.5467 42.1638 52.12C42.1638 52.6933 42.2638 53.1867 42.4638 53.6C42.6771 54 42.9704 54.3133 43.3438 54.54C43.7304 54.7533 44.1838 54.86 44.7038 54.86C45.1838 54.86 45.6171 54.78 46.0038 54.62C46.3904 54.4467 46.7304 54.1933 47.0238 53.86L48.7038 55.54C48.2238 56.1 47.6438 56.52 46.9638 56.8C46.2838 57.08 45.5371 57.22 44.7237 57.22ZM50.8808 57V47.28H53.9408V57H50.8808ZM57.1008 57V51.32C57.1008 50.8267 56.9474 50.4467 56.6408 50.18C56.3474 49.9 55.9808 49.76 55.5408 49.76C55.2341 49.76 54.9608 49.8267 54.7208 49.96C54.4808 50.08 54.2874 50.2533 54.1408 50.48C54.0074 50.7067 53.9408 50.9867 53.9408 51.32L52.7608 50.8C52.7608 50.0267 52.9274 49.3667 53.2608 48.82C53.5941 48.26 54.0474 47.8333 54.6208 47.54C55.1941 47.2333 55.8408 47.08 56.5608 47.08C57.2408 47.08 57.8474 47.2333 58.3808 47.54C58.9274 47.8467 59.3608 48.2733 59.6808 48.82C60.0008 49.3667 60.1608 50.02 60.1608 50.78V57H57.1008ZM63.3208 57V51.32C63.3208 50.8267 63.1674 50.4467 62.8608 50.18C62.5674 49.9 62.2008 49.76 61.7608 49.76C61.4541 49.76 61.1808 49.8267 60.9408 49.96C60.7008 50.08 60.5074 50.2533 60.3608 50.48C60.2274 50.7067 60.1608 50.9867 60.1608 51.32L58.4008 51.08C58.4274 50.2533 58.6208 49.5467 58.9808 48.96C59.3541 48.36 59.8408 47.9 60.4408 47.58C61.0541 47.2467 61.7408 47.08 62.5008 47.08C63.2474 47.08 63.9074 47.24 64.4808 47.56C65.0674 47.8667 65.5274 48.3133 65.8608 48.9C66.2074 49.4733 66.3808 50.1667 66.3808 50.98V57H63.3208ZM73.9417 57.2C73.2884 57.2 72.6884 57.0667 72.1417 56.8C71.5951 56.52 71.1484 56.1533 70.8017 55.7C70.4551 55.2333 70.2551 54.7133 70.2017 54.14V50.04C70.2551 49.4667 70.4551 48.96 70.8017 48.52C71.1484 48.0667 71.5951 47.7133 72.1417 47.46C72.6884 47.2067 73.2884 47.08 73.9417 47.08C74.8617 47.08 75.6751 47.3 76.3817 47.74C77.1017 48.18 77.6617 48.78 78.0617 49.54C78.4751 50.3 78.6817 51.1667 78.6817 52.14C78.6817 53.1133 78.4751 53.98 78.0617 54.74C77.6617 55.5 77.1017 56.1 76.3817 56.54C75.6751 56.98 74.8617 57.2 73.9417 57.2ZM73.4017 54.44C73.8284 54.44 74.2017 54.34 74.5217 54.14C74.8551 53.94 75.1151 53.6667 75.3017 53.32C75.4884 52.9733 75.5817 52.58 75.5817 52.14C75.5817 51.6867 75.4884 51.2867 75.3017 50.94C75.1151 50.5933 74.8551 50.3267 74.5217 50.14C74.2017 49.94 73.8284 49.84 73.4017 49.84C72.9751 49.84 72.5951 49.94 72.2617 50.14C71.9284 50.3267 71.6684 50.5933 71.4817 50.94C71.3084 51.2867 71.2217 51.6867 71.2217 52.14C71.2217 52.5933 71.3151 52.9933 71.5017 53.34C71.6884 53.6867 71.9417 53.96 72.2617 54.16C72.5951 54.3467 72.9751 54.44 73.4017 54.44ZM68.3417 57V42.48H71.4017V49.66L70.9017 52.02L71.3617 54.38V57H68.3417ZM85.0362 57.22C83.9829 57.22 83.0429 57.0067 82.2163 56.58C81.4029 56.14 80.7629 55.5333 80.2963 54.76C79.8296 53.9867 79.5963 53.1133 79.5963 52.14C79.5963 51.1667 79.8229 50.3 80.2763 49.54C80.7429 48.7667 81.3696 48.16 82.1563 47.72C82.9429 47.28 83.8296 47.06 84.8163 47.06C85.7763 47.06 86.6229 47.2667 87.3563 47.68C88.0896 48.0933 88.6629 48.6667 89.0763 49.4C89.5029 50.1333 89.7162 50.9733 89.7162 51.92C89.7162 52.0933 89.7029 52.28 89.6763 52.48C89.6629 52.6667 89.6296 52.8867 89.5763 53.14L81.1963 53.16V51.06L88.2763 51.04L86.9563 51.92C86.9429 51.36 86.8563 50.9 86.6963 50.54C86.5363 50.1667 86.2963 49.8867 85.9763 49.7C85.6696 49.5 85.2896 49.4 84.8363 49.4C84.3563 49.4 83.9363 49.5133 83.5763 49.74C83.2296 49.9533 82.9563 50.26 82.7563 50.66C82.5696 51.06 82.4763 51.5467 82.4763 52.12C82.4763 52.6933 82.5763 53.1867 82.7763 53.6C82.9896 54 83.2829 54.3133 83.6563 54.54C84.0429 54.7533 84.4963 54.86 85.0163 54.86C85.4963 54.86 85.9296 54.78 86.3163 54.62C86.7029 54.4467 87.0429 54.1933 87.3363 53.86L89.0163 55.54C88.5363 56.1 87.9563 56.52 87.2763 56.8C86.5963 57.08 85.8496 57.22 85.0362 57.22ZM91.1933 57V47.28H94.2533V57H91.1933ZM94.2533 51.66L92.9733 50.66C93.2266 49.5267 93.6533 48.6467 94.2533 48.02C94.8533 47.3933 95.6866 47.08 96.7533 47.08C97.2199 47.08 97.6266 47.1533 97.9733 47.3C98.3333 47.4333 98.6466 47.6467 98.9133 47.94L97.0933 50.24C96.9599 50.0933 96.7933 49.98 96.5933 49.9C96.3933 49.82 96.1666 49.78 95.9133 49.78C95.4066 49.78 94.9999 49.94 94.6933 50.26C94.3999 50.5667 94.2533 51.0333 94.2533 51.66ZM52.4097 80.24L57.8297 74.64C58.163 74.3067 58.4297 74 58.6297 73.72C58.8297 73.44 58.9764 73.18 59.0697 72.94C59.163 72.6867 59.2097 72.4333 59.2097 72.18C59.2097 71.6333 59.0297 71.2067 58.6697 70.9C58.323 70.58 57.863 70.42 57.2897 70.42C56.7297 70.42 56.223 70.5733 55.7697 70.88C55.3297 71.1733 54.903 71.66 54.4897 72.34L52.3897 70.52C52.9497 69.5733 53.663 68.86 54.5297 68.38C55.3964 67.9 56.3897 67.66 57.5097 67.66C58.483 67.66 59.323 67.84 60.0297 68.2C60.7497 68.56 61.303 69.0733 61.6897 69.74C62.0897 70.4067 62.2897 71.1867 62.2897 72.08C62.2897 72.64 62.2164 73.16 62.0697 73.64C61.923 74.1067 61.683 74.5733 61.3497 75.04C61.0297 75.4933 60.5964 75.9933 60.0497 76.54L56.2897 80.28L52.4097 80.24ZM52.4097 82V80.24L55.0697 79.32H62.5697V82H52.4097ZM69.8988 82.22C68.7654 82.22 67.7388 81.9133 66.8188 81.3C65.8988 80.6867 65.1721 79.8333 64.6388 78.74C64.1188 77.6333 63.8588 76.36 63.8588 74.92C63.8588 73.4667 64.1188 72.2 64.6388 71.12C65.1588 70.0267 65.8721 69.18 66.7788 68.58C67.6854 67.9667 68.7121 67.66 69.8588 67.66C71.0188 67.66 72.0521 67.9667 72.9588 68.58C73.8654 69.18 74.5788 70.0267 75.0988 71.12C75.6321 72.2133 75.8988 73.4867 75.8988 74.94C75.8988 76.3933 75.6321 77.6667 75.0988 78.76C74.5788 79.8533 73.8654 80.7067 72.9588 81.32C72.0654 81.92 71.0454 82.22 69.8988 82.22ZM69.8788 79.44C70.4654 79.44 70.9721 79.2733 71.3988 78.94C71.8254 78.5933 72.1521 78.0867 72.3788 77.42C72.6188 76.74 72.7388 75.9133 72.7388 74.94C72.7388 73.9533 72.6188 73.1267 72.3788 72.46C72.1521 71.7933 71.8254 71.2933 71.3988 70.96C70.9721 70.6133 70.4588 70.44 69.8588 70.44C69.2854 70.44 68.7788 70.6067 68.3388 70.94C67.9121 71.2733 67.5854 71.7733 67.3588 72.44C67.1321 73.1067 67.0188 73.9333 67.0188 74.92C67.0188 75.9067 67.1321 76.7333 67.3588 77.4C67.5854 78.0667 67.9121 78.5733 68.3388 78.92C68.7788 79.2667 69.2921 79.44 69.8788 79.44ZM77.0191 80.24L82.4391 74.64C82.7724 74.3067 83.0391 74 83.2391 73.72C83.4391 73.44 83.5857 73.18 83.6791 72.94C83.7724 72.6867 83.8191 72.4333 83.8191 72.18C83.8191 71.6333 83.6391 71.2067 83.2791 70.9C82.9324 70.58 82.4724 70.42 81.8991 70.42C81.3391 70.42 80.8324 70.5733 80.3791 70.88C79.9391 71.1733 79.5124 71.66 79.0991 72.34L76.9991 70.52C77.5591 69.5733 78.2724 68.86 79.1391 68.38C80.0057 67.9 80.9991 67.66 82.1191 67.66C83.0924 67.66 83.9324 67.84 84.6391 68.2C85.3591 68.56 85.9124 69.0733 86.2991 69.74C86.6991 70.4067 86.8991 71.1867 86.8991 72.08C86.8991 72.64 86.8257 73.16 86.6791 73.64C86.5324 74.1067 86.2924 74.5733 85.9591 75.04C85.6391 75.4933 85.2057 75.9933 84.6591 76.54L80.8991 80.28L77.0191 80.24ZM77.0191 82V80.24L79.6791 79.32H87.1791V82H77.0191ZM92.8881 82.22C91.9148 82.22 91.0215 82.0533 90.2081 81.72C89.3948 81.3733 88.7081 80.88 88.1481 80.24L90.1681 78.22C90.4215 78.5933 90.7881 78.9 91.2681 79.14C91.7615 79.3667 92.2815 79.48 92.8281 79.48C93.3215 79.48 93.7481 79.3933 94.1081 79.22C94.4681 79.0467 94.7481 78.8 94.9481 78.48C95.1615 78.16 95.2681 77.78 95.2681 77.34C95.2681 76.9 95.1615 76.5267 94.9481 76.22C94.7481 75.9 94.4481 75.6533 94.0481 75.48C93.6615 75.3067 93.1948 75.22 92.6481 75.22C92.3948 75.22 92.1281 75.24 91.8481 75.28C91.5815 75.3067 91.3548 75.3533 91.1681 75.42L92.5481 73.68C92.9215 73.5733 93.2748 73.4867 93.6081 73.42C93.9548 73.34 94.2748 73.3 94.5681 73.3C95.2881 73.3 95.9348 73.4733 96.5081 73.82C97.0815 74.1533 97.5348 74.6333 97.8681 75.26C98.2148 75.8733 98.3881 76.6067 98.3881 77.46C98.3881 78.3933 98.1548 79.22 97.6881 79.94C97.2348 80.66 96.5948 81.22 95.7681 81.62C94.9548 82.02 93.9948 82.22 92.8881 82.22ZM91.1681 75.42V73.68L94.6081 69.64L98.1281 69.62L94.5481 73.7L91.1681 75.42ZM89.0281 70.54V67.88H98.1281V69.62L95.6681 70.54H89.0281Z" fill="white"/>
<path d="M27.4992 255.22C26.6059 255.22 25.8259 255.06 25.1592 254.74C24.5059 254.407 23.9459 253.947 23.4792 253.36L25.5792 251.34C25.8192 251.673 26.0992 251.927 26.4192 252.1C26.7526 252.273 27.1259 252.36 27.5392 252.36C27.9392 252.36 28.2859 252.28 28.5792 252.12C28.8726 251.947 29.1059 251.707 29.2792 251.4C29.4526 251.08 29.5392 250.687 29.5392 250.22V240.88H32.6992V250.04C32.6992 251.093 32.4859 252.007 32.0592 252.78C31.6326 253.553 31.0326 254.153 30.2592 254.58C29.4859 255.007 28.5659 255.22 27.4992 255.22ZM38.9837 255.2C38.0904 255.2 37.2904 254.98 36.5838 254.54C35.8904 254.1 35.3371 253.5 34.9238 252.74C34.5238 251.98 34.3238 251.113 34.3238 250.14C34.3238 249.167 34.5238 248.3 34.9238 247.54C35.3371 246.78 35.8904 246.18 36.5838 245.74C37.2904 245.3 38.0904 245.08 38.9837 245.08C39.6371 245.08 40.2238 245.207 40.7438 245.46C41.2771 245.713 41.7104 246.067 42.0438 246.52C42.3771 246.96 42.5638 247.467 42.6038 248.04V252.24C42.5638 252.813 42.3771 253.327 42.0438 253.78C41.7238 254.22 41.2971 254.567 40.7638 254.82C40.2304 255.073 39.6371 255.2 38.9837 255.2ZM39.6038 252.44C40.2571 252.44 40.7838 252.227 41.1838 251.8C41.5838 251.36 41.7838 250.807 41.7838 250.14C41.7838 249.687 41.6904 249.287 41.5038 248.94C41.3304 248.593 41.0771 248.327 40.7438 248.14C40.4238 247.94 40.0504 247.84 39.6238 247.84C39.1971 247.84 38.8171 247.94 38.4838 248.14C38.1638 248.327 37.9038 248.593 37.7038 248.94C37.5171 249.287 37.4238 249.687 37.4238 250.14C37.4238 250.58 37.5171 250.973 37.7038 251.32C37.8904 251.667 38.1504 251.94 38.4838 252.14C38.8171 252.34 39.1904 252.44 39.6038 252.44ZM41.6638 255V252.38L42.1238 250.02L41.6638 247.66V245.28H44.6638V255H41.6638ZM53.2383 255V249.46C53.2383 248.953 53.0783 248.547 52.7583 248.24C52.4516 247.92 52.0583 247.76 51.5783 247.76C51.2449 247.76 50.9516 247.833 50.6983 247.98C50.4449 248.113 50.2449 248.313 50.0983 248.58C49.9516 248.833 49.8783 249.127 49.8783 249.46L48.6983 248.88C48.6983 248.12 48.8649 247.453 49.1983 246.88C49.5316 246.307 49.9916 245.867 50.5783 245.56C51.1783 245.24 51.8516 245.08 52.5983 245.08C53.3183 245.08 53.9516 245.253 54.4983 245.6C55.0583 245.933 55.4983 246.38 55.8183 246.94C56.1383 247.5 56.2983 248.113 56.2983 248.78V255H53.2383ZM46.8183 255V245.28H49.8783V255H46.8183ZM62.5836 255.22C61.6903 255.22 60.8969 255.04 60.2036 254.68C59.5236 254.307 58.9903 253.8 58.6036 253.16C58.2169 252.507 58.0236 251.76 58.0236 250.92V245.28H61.0836V250.88C61.0836 251.213 61.1369 251.5 61.2436 251.74C61.3636 251.98 61.5369 252.167 61.7636 252.3C61.9903 252.433 62.2636 252.5 62.5836 252.5C63.0369 252.5 63.3969 252.36 63.6636 252.08C63.9303 251.787 64.0636 251.387 64.0636 250.88V245.28H67.1236V250.9C67.1236 251.753 66.9303 252.507 66.5436 253.16C66.1569 253.8 65.6236 254.307 64.9436 254.68C64.2636 255.04 63.4769 255.22 62.5836 255.22ZM73.1048 255.2C72.2115 255.2 71.4115 254.98 70.7048 254.54C70.0115 254.1 69.4582 253.5 69.0448 252.74C68.6448 251.98 68.4448 251.113 68.4448 250.14C68.4448 249.167 68.6448 248.3 69.0448 247.54C69.4582 246.78 70.0115 246.18 70.7048 245.74C71.4115 245.3 72.2115 245.08 73.1048 245.08C73.7582 245.08 74.3448 245.207 74.8648 245.46C75.3982 245.713 75.8315 246.067 76.1648 246.52C76.4982 246.96 76.6848 247.467 76.7248 248.04V252.24C76.6848 252.813 76.4982 253.327 76.1648 253.78C75.8448 254.22 75.4182 254.567 74.8848 254.82C74.3515 255.073 73.7582 255.2 73.1048 255.2ZM73.7248 252.44C74.3782 252.44 74.9048 252.227 75.3048 251.8C75.7048 251.36 75.9048 250.807 75.9048 250.14C75.9048 249.687 75.8115 249.287 75.6248 248.94C75.4515 248.593 75.1982 248.327 74.8648 248.14C74.5448 247.94 74.1715 247.84 73.7448 247.84C73.3182 247.84 72.9382 247.94 72.6048 248.14C72.2848 248.327 72.0248 248.593 71.8248 248.94C71.6382 249.287 71.5448 249.687 71.5448 250.14C71.5448 250.58 71.6382 250.973 71.8248 251.32C72.0115 251.667 72.2715 251.94 72.6048 252.14C72.9382 252.34 73.3115 252.44 73.7248 252.44ZM75.7848 255V252.38L76.2448 250.02L75.7848 247.66V245.28H78.7848V255H75.7848ZM80.9394 255V245.28H83.9994V255H80.9394ZM83.9994 249.66L82.7194 248.66C82.9727 247.527 83.3994 246.647 83.9994 246.02C84.5994 245.393 85.4327 245.08 86.4994 245.08C86.966 245.08 87.3727 245.153 87.7194 245.3C88.0794 245.433 88.3927 245.647 88.6594 245.94L86.8394 248.24C86.706 248.093 86.5394 247.98 86.3394 247.9C86.1394 247.82 85.9127 247.78 85.6594 247.78C85.1527 247.78 84.746 247.94 84.4394 248.26C84.146 248.567 83.9994 249.033 83.9994 249.66ZM92.3964 255.04L88.3964 245.28H91.6964L94.2364 253.02H93.0164L95.6164 245.28H98.9164L94.7564 255.04H92.3964ZM89.8964 259.1L92.8164 252.8L94.7564 255.04L93.0364 259.1H89.8964ZM51.3941 278.24L56.8141 272.64C57.1474 272.307 57.4141 272 57.6141 271.72C57.8141 271.44 57.9607 271.18 58.0541 270.94C58.1474 270.687 58.1941 270.433 58.1941 270.18C58.1941 269.633 58.0141 269.207 57.6541 268.9C57.3074 268.58 56.8474 268.42 56.2741 268.42C55.7141 268.42 55.2074 268.573 54.7541 268.88C54.3141 269.173 53.8874 269.66 53.4741 270.34L51.3741 268.52C51.9341 267.573 52.6474 266.86 53.5141 266.38C54.3807 265.9 55.3741 265.66 56.4941 265.66C57.4674 265.66 58.3074 265.84 59.0141 266.2C59.7341 266.56 60.2874 267.073 60.6741 267.74C61.0741 268.407 61.2741 269.187 61.2741 270.08C61.2741 270.64 61.2007 271.16 61.0541 271.64C60.9074 272.107 60.6674 272.573 60.3341 273.04C60.0141 273.493 59.5807 273.993 59.0341 274.54L55.2741 278.28L51.3941 278.24ZM51.3941 280V278.24L54.0541 277.32H61.5541V280H51.3941ZM68.8831 280.22C67.7498 280.22 66.7231 279.913 65.8031 279.3C64.8831 278.687 64.1565 277.833 63.6231 276.74C63.1031 275.633 62.8431 274.36 62.8431 272.92C62.8431 271.467 63.1031 270.2 63.6231 269.12C64.1431 268.027 64.8565 267.18 65.7631 266.58C66.6698 265.967 67.6965 265.66 68.8431 265.66C70.0031 265.66 71.0365 265.967 71.9431 266.58C72.8498 267.18 73.5631 268.027 74.0831 269.12C74.6165 270.213 74.8831 271.487 74.8831 272.94C74.8831 274.393 74.6165 275.667 74.0831 276.76C73.5631 277.853 72.8498 278.707 71.9431 279.32C71.0498 279.92 70.0298 280.22 68.8831 280.22ZM68.8631 277.44C69.4498 277.44 69.9565 277.273 70.3831 276.94C70.8098 276.593 71.1365 276.087 71.3631 275.42C71.6031 274.74 71.7231 273.913 71.7231 272.94C71.7231 271.953 71.6031 271.127 71.3631 270.46C71.1365 269.793 70.8098 269.293 70.3831 268.96C69.9565 268.613 69.4431 268.44 68.8431 268.44C68.2698 268.44 67.7631 268.607 67.3231 268.94C66.8965 269.273 66.5698 269.773 66.3431 270.44C66.1165 271.107 66.0031 271.933 66.0031 272.92C66.0031 273.907 66.1165 274.733 66.3431 275.4C66.5698 276.067 66.8965 276.573 67.3231 276.92C67.7631 277.267 68.2765 277.44 68.8631 277.44ZM76.0034 278.24L81.4234 272.64C81.7568 272.307 82.0234 272 82.2234 271.72C82.4234 271.44 82.5701 271.18 82.6634 270.94C82.7568 270.687 82.8034 270.433 82.8034 270.18C82.8034 269.633 82.6234 269.207 82.2634 268.9C81.9168 268.58 81.4568 268.42 80.8834 268.42C80.3234 268.42 79.8168 268.573 79.3634 268.88C78.9234 269.173 78.4968 269.66 78.0834 270.34L75.9834 268.52C76.5434 267.573 77.2568 266.86 78.1234 266.38C78.9901 265.9 79.9834 265.66 81.1034 265.66C82.0768 265.66 82.9168 265.84 83.6234 266.2C84.3434 266.56 84.8968 267.073 85.2834 267.74C85.6834 268.407 85.8834 269.187 85.8834 270.08C85.8834 270.64 85.8101 271.16 85.6634 271.64C85.5168 272.107 85.2768 272.573 84.9434 273.04C84.6234 273.493 84.1901 273.993 83.6434 274.54L79.8834 278.28L76.0034 278.24ZM76.0034 280V278.24L78.6634 277.32H86.1634V280H76.0034ZM87.2325 275.1L91.8725 265.88H95.2925L90.5525 275.1H87.2325ZM87.2325 276.86V275.1L88.2725 274.2H98.5525V276.86H87.2325ZM93.8925 280V271.26H96.9725V280H93.8925Z" fill="white"/>
<path d="M34.6906 453L40.2906 438.88H43.1306L48.6706 453H45.3506L41.1106 441.28H42.2506L37.9506 453H34.6906ZM37.8706 450.44V447.88H45.5706V450.44H37.8706ZM54.0094 453.22C53.116 453.22 52.3227 453.04 51.6294 452.68C50.9494 452.307 50.416 451.8 50.0294 451.16C49.6427 450.507 49.4494 449.76 49.4494 448.92V443.28H52.5094V448.88C52.5094 449.213 52.5627 449.5 52.6694 449.74C52.7894 449.98 52.9627 450.167 53.1894 450.3C53.416 450.433 53.6894 450.5 54.0094 450.5C54.4627 450.5 54.8227 450.36 55.0894 450.08C55.356 449.787 55.4894 449.387 55.4894 448.88V443.28H58.5494V448.9C58.5494 449.753 58.356 450.507 57.9694 451.16C57.5827 451.8 57.0494 452.307 56.3694 452.68C55.6894 453.04 54.9027 453.22 54.0094 453.22ZM64.5906 457.36C63.524 457.36 62.584 457.173 61.7706 456.8C60.9706 456.44 60.3373 455.927 59.8706 455.26L61.7506 453.38C62.0973 453.793 62.484 454.107 62.9106 454.32C63.3506 454.533 63.8773 454.64 64.4906 454.64C65.2506 454.64 65.844 454.453 66.2706 454.08C66.7106 453.707 66.9306 453.18 66.9306 452.5V450.02L67.4506 447.9L66.9906 445.78V443.28H69.9906V452.42C69.9906 453.42 69.7573 454.287 69.2906 455.02C68.824 455.753 68.184 456.327 67.3706 456.74C66.5573 457.153 65.6306 457.36 64.5906 457.36ZM64.4506 452.7C63.5573 452.7 62.764 452.487 62.0706 452.06C61.3773 451.633 60.8306 451.053 60.4306 450.32C60.0306 449.587 59.8306 448.773 59.8306 447.88C59.8306 446.973 60.0306 446.16 60.4306 445.44C60.8306 444.707 61.3773 444.133 62.0706 443.72C62.764 443.293 63.5573 443.08 64.4506 443.08C65.1173 443.08 65.7106 443.207 66.2306 443.46C66.764 443.7 67.1906 444.047 67.5106 444.5C67.844 444.94 68.0306 445.453 68.0706 446.04V449.74C68.0306 450.313 67.844 450.827 67.5106 451.28C67.1906 451.72 66.764 452.067 66.2306 452.32C65.6973 452.573 65.104 452.7 64.4506 452.7ZM65.0306 449.98C65.4573 449.98 65.824 449.887 66.1306 449.7C66.4506 449.513 66.6906 449.267 66.8506 448.96C67.024 448.64 67.1106 448.28 67.1106 447.88C67.1106 447.48 67.024 447.12 66.8506 446.8C66.6906 446.48 66.4506 446.227 66.1306 446.04C65.824 445.853 65.4573 445.76 65.0306 445.76C64.6173 445.76 64.2506 445.853 63.9306 446.04C63.6106 446.227 63.364 446.48 63.1906 446.8C63.0173 447.12 62.9306 447.48 62.9306 447.88C62.9306 448.253 63.0173 448.607 63.1906 448.94C63.364 449.26 63.604 449.513 63.9106 449.7C64.2306 449.887 64.604 449.98 65.0306 449.98ZM76.4703 453.22C75.577 453.22 74.7836 453.04 74.0903 452.68C73.4103 452.307 72.877 451.8 72.4903 451.16C72.1036 450.507 71.9103 449.76 71.9103 448.92V443.28H74.9703V448.88C74.9703 449.213 75.0236 449.5 75.1303 449.74C75.2503 449.98 75.4236 450.167 75.6503 450.3C75.877 450.433 76.1503 450.5 76.4703 450.5C76.9236 450.5 77.2836 450.36 77.5503 450.08C77.817 449.787 77.9503 449.387 77.9503 448.88V443.28H81.0103V448.9C81.0103 449.753 80.817 450.507 80.4303 451.16C80.0436 451.8 79.5103 452.307 78.8303 452.68C78.1503 453.04 77.3636 453.22 76.4703 453.22ZM86.4716 453.24C85.8982 453.24 85.3316 453.167 84.7716 453.02C84.2249 452.873 83.7116 452.667 83.2316 452.4C82.7649 452.12 82.3649 451.8 82.0316 451.44L83.7716 449.68C84.0916 450.027 84.4716 450.3 84.9116 450.5C85.3516 450.687 85.8316 450.78 86.3516 450.78C86.7116 450.78 86.9849 450.727 87.1716 450.62C87.3716 450.513 87.4716 450.367 87.4716 450.18C87.4716 449.94 87.3516 449.76 87.1116 449.64C86.8849 449.507 86.5916 449.393 86.2316 449.3C85.8716 449.193 85.4916 449.08 85.0916 448.96C84.6916 448.84 84.3116 448.673 83.9516 448.46C83.5916 448.247 83.2982 447.953 83.0716 447.58C82.8449 447.193 82.7316 446.707 82.7316 446.12C82.7316 445.493 82.8916 444.953 83.2116 444.5C83.5316 444.033 83.9849 443.667 84.5716 443.4C85.1582 443.133 85.8449 443 86.6316 443C87.4582 443 88.2182 443.147 88.9116 443.44C89.6182 443.72 90.1916 444.14 90.6316 444.7L88.8916 446.46C88.5849 446.1 88.2382 445.847 87.8516 445.7C87.4782 445.553 87.1116 445.48 86.7516 445.48C86.4049 445.48 86.1449 445.533 85.9716 445.64C85.7982 445.733 85.7116 445.873 85.7116 446.06C85.7116 446.26 85.8249 446.42 86.0516 446.54C86.2782 446.66 86.5716 446.767 86.9316 446.86C87.2916 446.953 87.6716 447.067 88.0716 447.2C88.4716 447.333 88.8516 447.513 89.2116 447.74C89.5716 447.967 89.8649 448.273 90.0916 448.66C90.3182 449.033 90.4316 449.527 90.4316 450.14C90.4316 451.087 90.0716 451.84 89.3516 452.4C88.6449 452.96 87.6849 453.24 86.4716 453.24ZM93.4717 453V439.26H96.5317V453H93.4717ZM91.2717 445.88V443.28H98.7317V445.88H91.2717ZM51.3941 476.24L56.8141 470.64C57.1474 470.307 57.4141 470 57.6141 469.72C57.8141 469.44 57.9607 469.18 58.0541 468.94C58.1474 468.687 58.1941 468.433 58.1941 468.18C58.1941 467.633 58.0141 467.207 57.6541 466.9C57.3074 466.58 56.8474 466.42 56.2741 466.42C55.7141 466.42 55.2074 466.573 54.7541 466.88C54.3141 467.173 53.8874 467.66 53.4741 468.34L51.3741 466.52C51.9341 465.573 52.6474 464.86 53.5141 464.38C54.3807 463.9 55.3741 463.66 56.4941 463.66C57.4674 463.66 58.3074 463.84 59.0141 464.2C59.7341 464.56 60.2874 465.073 60.6741 465.74C61.0741 466.407 61.2741 467.187 61.2741 468.08C61.2741 468.64 61.2007 469.16 61.0541 469.64C60.9074 470.107 60.6674 470.573 60.3341 471.04C60.0141 471.493 59.5807 471.993 59.0341 472.54L55.2741 476.28L51.3941 476.24ZM51.3941 478V476.24L54.0541 475.32H61.5541V478H51.3941ZM68.8831 478.22C67.7498 478.22 66.7231 477.913 65.8031 477.3C64.8831 476.687 64.1565 475.833 63.6231 474.74C63.1031 473.633 62.8431 472.36 62.8431 470.92C62.8431 469.467 63.1031 468.2 63.6231 467.12C64.1431 466.027 64.8565 465.18 65.7631 464.58C66.6698 463.967 67.6965 463.66 68.8431 463.66C70.0031 463.66 71.0365 463.967 71.9431 464.58C72.8498 465.18 73.5631 466.027 74.0831 467.12C74.6165 468.213 74.8831 469.487 74.8831 470.94C74.8831 472.393 74.6165 473.667 74.0831 474.76C73.5631 475.853 72.8498 476.707 71.9431 477.32C71.0498 477.92 70.0298 478.22 68.8831 478.22ZM68.8631 475.44C69.4498 475.44 69.9565 475.273 70.3831 474.94C70.8098 474.593 71.1365 474.087 71.3631 473.42C71.6031 472.74 71.7231 471.913 71.7231 470.94C71.7231 469.953 71.6031 469.127 71.3631 468.46C71.1365 467.793 70.8098 467.293 70.3831 466.96C69.9565 466.613 69.4431 466.44 68.8431 466.44C68.2698 466.44 67.7631 466.607 67.3231 466.94C66.8965 467.273 66.5698 467.773 66.3431 468.44C66.1165 469.107 66.0031 469.933 66.0031 470.92C66.0031 471.907 66.1165 472.733 66.3431 473.4C66.5698 474.067 66.8965 474.573 67.3231 474.92C67.7631 475.267 68.2765 475.44 68.8631 475.44ZM76.0034 476.24L81.4234 470.64C81.7568 470.307 82.0234 470 82.2234 469.72C82.4234 469.44 82.5701 469.18 82.6634 468.94C82.7568 468.687 82.8034 468.433 82.8034 468.18C82.8034 467.633 82.6234 467.207 82.2634 466.9C81.9168 466.58 81.4568 466.42 80.8834 466.42C80.3234 466.42 79.8168 466.573 79.3634 466.88C78.9234 467.173 78.4968 467.66 78.0834 468.34L75.9834 466.52C76.5434 465.573 77.2568 464.86 78.1234 464.38C78.9901 463.9 79.9834 463.66 81.1034 463.66C82.0768 463.66 82.9168 463.84 83.6234 464.2C84.3434 464.56 84.8968 465.073 85.2834 465.74C85.6834 466.407 85.8834 467.187 85.8834 468.08C85.8834 468.64 85.8101 469.16 85.6634 469.64C85.5168 470.107 85.2768 470.573 84.9434 471.04C84.6234 471.493 84.1901 471.993 83.6434 472.54L79.8834 476.28L76.0034 476.24ZM76.0034 478V476.24L78.6634 475.32H86.1634V478H76.0034ZM87.2325 473.1L91.8725 463.88H95.2925L90.5525 473.1H87.2325ZM87.2325 474.86V473.1L88.2725 472.2H98.5525V474.86H87.2325ZM93.8925 478V469.26H96.9725V478H93.8925Z" fill="white"/>
<defs>
<linearGradient id="paint0_linear_568_100" x1="134" y1="0" x2="134" y2="524" gradientUnits="userSpaceOnUse">
<stop offset="0.2" stop-color="#FF5C00"/>
<stop offset="0.8" stop-color="#0076FF"/>
</linearGradient>
</defs>
</svg>
